<svg width="68" height="77" viewBox="0 0 68 77" fill="none" xmlns="http://www.w3.org/2000/svg">
<path d="M67.3497 5.29418V57.5062C67.3497 60.3692 65.5254 62.6989 63.2836 62.6989H42.9917V66.4779C42.9917 69.9416 45.1979 72.759 47.9102 72.759H52.3832C53.2402 72.759 53.9358 73.6453 53.9358 74.7418C53.9358 75.8362 53.2402 76.7245 52.3832 76.7245H14.9666C14.1096 76.7245 13.414 75.8362 13.414 74.7418C13.414 73.6453 14.1096 72.759 14.9666 72.759H19.4395C22.1517 72.759 24.358 69.9416 24.358 66.4779V62.6989H4.0661C1.82423 62.6989 0 60.3692 0 57.5062V5.29418C0 2.43119 1.82423 0.101562 4.0661 0.101562H63.2836C65.5254 0.101563 67.3497 2.43119 67.3497 5.29418ZM64.2446 57.5062V47.0872H3.10506V57.5062C3.10506 58.1844 3.53665 58.7335 4.0661 58.7335H63.2836C63.813 58.7335 64.2446 58.1842 64.2446 57.5062ZM64.2446 43.1218V5.29418C64.2446 4.61803 63.813 4.06687 63.2836 4.06687H4.0661C3.53665 4.06687 3.10506 4.61803 3.10506 5.29418V43.1218H64.2446ZM25.7723 72.759H41.5772C40.5199 71.0222 39.8865 68.8433 39.8865 66.4779V62.6989H27.463V66.4779C27.4631 68.8431 26.8296 71.0222 25.7723 72.759Z" fill="black"/>
<path d="M64.2446 47.0874V57.5064C64.2446 58.1846 63.813 58.7337 63.2835 58.7337H4.06609C3.53663 58.7337 3.10504 58.1846 3.10504 57.5064V47.0874H64.2446ZM35.35 52.9105C35.35 51.7289 34.6001 50.7712 33.6748 50.7712C32.7495 50.7712 31.9996 51.7289 31.9996 52.9105C31.9996 54.0921 32.7495 55.0498 33.6748 55.0498C34.6001 55.0498 35.35 54.0923 35.35 52.9105Z" fill="#0061FF"/>
<path d="M42.8411 21.8814C43.4466 22.6567 43.4466 23.9117 42.8411 24.687L38.4692 30.2683C38.1663 30.655 37.769 30.8492 37.3716 30.8492C36.9742 30.8492 36.5767 30.6548 36.2738 30.2683C35.6668 29.493 35.6668 28.238 36.2738 27.4648L40.6443 21.8816C41.2513 21.1082 42.234 21.1082 42.8411 21.8814Z" fill="#FB724C"/>
<path d="M41.5774 72.7592H25.7723C26.8296 71.0223 27.463 68.8434 27.463 66.478V62.699H39.8865V66.478C39.8866 68.8432 40.52 71.0223 41.5774 72.7592Z" fill="#FB724C" fill-opacity="0.5"/>
<path d="M36.3375 13.7622C36.943 14.5355 36.943 15.7925 36.3375 16.5657L25.3641 30.5775C25.0613 30.966 24.6639 31.1583 24.2666 31.1583C23.8692 31.1583 23.4716 30.966 23.169 30.5775C22.5635 29.8042 22.5635 28.5492 23.169 27.7739L34.1409 13.7622C34.7477 12.9871 35.7305 12.9871 36.3375 13.7622Z" fill="#FB724C"/>
<path d="M33.6748 55.0498C34.6 55.0498 35.35 54.092 35.35 52.9105C35.35 51.729 34.6 50.7712 33.6748 50.7712C32.7496 50.7712 31.9996 51.729 31.9996 52.9105C31.9996 54.092 32.7496 55.0498 33.6748 55.0498Z" fill="black"/>
</svg>
