<svg width="60" height="77" viewBox="0 0 60 77" fill="none" xmlns="http://www.w3.org/2000/svg">
<path d="M1.17188 52.6108V56.671C1.17188 59.3158 2.85082 61.4599 4.92188 61.4599H55.0781C57.1492 61.4599 58.8281 59.3158 58.8281 56.671V52.6108H1.17188Z" fill="#0061FF"/>
<path d="M46.4062 26.4675V18.6319H43.7332C43.3743 16.5725 42.7391 14.6462 41.8791 12.9201L43.7702 10.505L39.4316 4.96432L37.54 7.38003C36.1883 6.28232 34.6801 5.47164 33.0677 5.0137V1.59814H26.932V5.0137C25.3196 5.47164 23.8114 6.28232 22.4598 7.38003L20.5682 4.96432L16.2296 10.505L18.1208 12.9201C17.2608 14.6462 16.6256 16.5725 16.2667 18.6319H13.5938V26.4675H16.266C16.6245 28.5277 17.2595 30.4546 18.1194 32.1813L16.2298 34.5945L20.5683 40.135L22.4575 37.7224C23.8097 38.8212 25.3187 39.6326 26.9321 40.0909V43.5013H33.0679V40.0909C34.6812 39.6326 36.1903 38.8212 37.5425 37.7224L39.4317 40.135L43.7703 34.5945L41.8807 32.1813C42.7406 30.4546 43.3757 28.5277 43.7341 26.4675H46.4062Z" fill="#FB724C"/>
<path d="M22.4459 75.2281C24.491 73.5873 25.7322 70.7197 25.7322 67.6353V61.46H34.2677V67.6353C34.2677 70.7195 35.5089 73.5873 37.554 75.2281H22.4459Z" fill="#FB724C" fill-opacity="0.5"/>
<path d="M30 51.1145C29.6918 51.1145 29.3895 51.2746 29.1715 51.553C28.9535 51.8313 28.8281 52.2175 28.8281 52.611C28.8281 53.0046 28.9534 53.3907 29.1715 53.6691C29.3896 53.9475 29.6918 54.1076 30 54.1076C30.3082 54.1076 30.6105 53.9475 30.8284 53.6691C31.0464 53.3907 31.1719 53.0046 31.1719 52.611C31.1719 52.2175 31.0465 51.8313 30.8284 51.553C30.6105 51.2746 30.3082 51.1145 30 51.1145Z" fill="black"/>
<path d="M30 34.5245C35.1694 34.5245 39.375 29.1537 39.375 22.5522C39.375 15.9506 35.1694 10.5798 30 10.5798C24.8306 10.5798 20.625 15.9506 20.625 22.5522C20.625 29.1537 24.8306 34.5245 30 34.5245ZM30 13.5729C33.877 13.5729 37.0312 17.601 37.0312 22.5522C37.0312 27.5033 33.877 31.5314 30 31.5314C26.123 31.5314 22.9688 27.5033 22.9688 22.5522C22.9688 17.601 26.123 13.5729 30 13.5729Z" fill="black"/>
<path d="M55.0781 8.18289H43.6091L40.2602 3.90622C40.0404 3.62562 39.7424 3.46788 39.4316 3.46788C39.1208 3.46788 38.8227 3.62562 38.603 3.90622L37.3548 5.50034C36.366 4.8031 35.3237 4.25147 34.2397 3.8519V1.5981C34.2397 0.771564 33.715 0.101562 33.0678 0.101562H26.9323C26.2852 0.101562 25.7604 0.771564 25.7604 1.5981V3.8519C24.6764 4.25147 23.634 4.8031 22.6453 5.50034L21.3971 3.90622C21.1774 3.62562 20.8793 3.46788 20.5685 3.46788C20.2577 3.46788 19.9597 3.62562 19.7399 3.90622L16.3909 8.18289H4.92188C2.20793 8.18289 0 11.0025 0 14.4684V56.6708C0 60.1367 2.20793 62.9563 4.92188 62.9563H24.5604V67.6351C24.5604 70.2207 23.537 72.5854 21.8227 73.9607C21.3804 74.3155 21.1754 75.0012 21.3199 75.6422C21.4644 76.2832 21.9237 76.7245 22.446 76.7245H37.554C38.0763 76.7245 38.5356 76.2832 38.6801 75.6422C38.8246 75.0012 38.6196 74.3155 38.1773 73.9607C36.463 72.5854 35.4396 70.2207 35.4396 67.6351V62.9563H55.0781C57.7921 62.9563 60 60.1367 60 56.6708V14.4684C60 11.0025 57.7921 8.18289 55.0781 8.18289ZM20.5684 7.08084L21.6313 8.43835C22.0195 8.93415 22.6255 9.01931 23.0889 8.64293C24.3509 7.61794 25.7295 6.88853 27.1867 6.47474C27.7227 6.32239 28.1041 5.71524 28.1041 5.01381V3.09465H31.896V5.01381C31.896 5.71524 32.2774 6.32239 32.8134 6.47474C34.2707 6.88853 35.6493 7.61809 36.9113 8.64293C37.3744 9.01916 37.9804 8.9343 38.3688 8.43835L39.4317 7.08084L42.113 10.5051L41.0505 11.8618C40.6623 12.3578 40.5956 13.1317 40.8906 13.7234C41.6936 15.335 42.2651 17.0958 42.5895 18.9569C42.7087 19.6415 43.1842 20.1284 43.7333 20.1284H45.2344V24.9708H43.734C43.1848 24.9708 42.7092 25.4579 42.59 26.1427C42.2659 28.0046 41.6945 29.766 40.8918 31.3781C40.5969 31.9698 40.6636 32.7435 41.0518 33.2395L42.1129 34.5945L39.4316 38.0185L38.3711 36.6642C37.9826 36.1682 37.3765 36.0832 36.9134 36.4598C35.6509 37.4856 34.2715 38.2158 32.8134 38.6299C32.2774 38.7821 31.896 39.3894 31.896 40.0907V42.0047H28.1041V40.0908C28.1041 39.3894 27.7227 38.7822 27.1867 38.63C25.7286 38.2158 24.3492 37.4858 23.0868 36.4599C22.6236 36.0834 22.0175 36.1684 21.6291 36.6643L20.5685 38.0187L17.8873 34.5946L18.9483 33.2396C19.3365 32.7437 19.4032 31.97 19.1084 31.3782C18.3055 29.7662 17.7341 28.0047 17.4101 26.1429C17.2909 25.4581 16.8154 24.9709 16.2661 24.9709H14.7656V20.1286H16.2669C16.8161 20.1286 17.2915 19.6416 17.4108 18.9571C17.7353 17.0958 18.3068 15.3352 19.1096 13.7235C19.4046 13.1318 19.3379 12.3579 18.9497 11.862L17.8873 10.5052L20.5684 7.08084ZM34.623 73.7314H25.377C26.3586 71.9854 26.9041 69.8691 26.9041 67.6351V62.9563H33.0959V67.6351C33.0959 69.8691 33.6414 71.9854 34.623 73.7314ZM55.0781 59.9632H4.92188C3.50027 59.9632 2.34375 58.4863 2.34375 56.6708V54.1073H24.7421C25.3893 54.1073 25.914 53.4373 25.914 52.6107C25.914 51.7842 25.3893 51.1142 24.7421 51.1142H2.34375V14.4684C2.34375 12.6529 3.50027 11.176 4.92188 11.176H15.1828C15.2377 11.3156 15.3098 11.4468 15.4011 11.5633L16.6488 13.1565C16.1025 14.4193 15.6702 15.7506 15.3572 17.1354H13.5938C12.9466 17.1354 12.4219 17.8054 12.4219 18.6319V26.4673C12.4219 27.2939 12.9466 27.9639 13.5938 27.9639H15.356C15.669 29.3492 16.1011 30.6812 16.6475 31.9445L15.4011 33.5361C14.9435 34.1205 14.9435 35.0681 15.4011 35.6527L19.7396 41.1932C20.1974 41.7776 20.9392 41.7776 21.397 41.1932L22.6427 39.6023C23.6321 40.3005 24.6754 40.8526 25.7604 41.2526V43.5013C25.7604 44.3278 26.2852 44.9978 26.9323 44.9978H33.0678C33.715 44.9978 34.2397 44.3278 34.2397 43.5013V41.2526C35.3248 40.8527 36.3679 40.3005 37.3574 39.6023L38.6031 41.1932C39.0608 41.7776 39.8026 41.7776 40.2605 41.1932L44.599 35.6527C45.0566 35.0683 45.0566 34.1207 44.599 33.5361L43.3526 31.9445C43.8989 30.6812 44.3311 29.3492 44.6441 27.9639H46.4062C47.0534 27.9639 47.5781 27.2939 47.5781 26.4673V18.6319C47.5781 17.8054 47.0534 17.1354 46.4062 17.1354H44.6428C44.3297 15.7508 43.8975 14.4194 43.3512 13.1565L44.5989 11.5633C44.69 11.4468 44.7623 11.3156 44.8172 11.176H55.0781C56.4997 11.176 57.6562 12.6529 57.6562 14.4684V51.1142H35.2888C34.6417 51.1142 34.1169 51.7842 34.1169 52.6107C34.1169 53.4373 34.6417 54.1073 35.2888 54.1073H57.6562V56.6708C57.6562 58.4863 56.4997 59.9632 55.0781 59.9632Z" fill="black"/>
</svg>
