<svg width="59" height="77" viewBox="0 0 59 77" fill="none" xmlns="http://www.w3.org/2000/svg">
<path d="M38.8151 57.6096V47.7058L48.7546 40.757L45.6525 38.644L34.8209 46.2202V56.124C34.8244 63.9865 38.4723 71.101 44.1145 74.2482L45.6136 75.0902L46.4411 74.6279C41.7218 71.0758 38.8227 64.6055 38.8151 57.6096Z" fill="black" fill-opacity="0.1"/>
<path d="M15.976 20.85C15.976 12.1261 21.5138 5.0535 28.3456 5.0535C28.7459 5.0535 29.1337 5.08638 29.5215 5.11927C25.3742 0.964949 19.6214 0.621926 15.1889 4.26558C10.7569 7.90923 8.61866 14.7387 9.86273 21.28C11.1068 27.8213 15.4595 32.6378 20.7064 33.2794C17.7195 30.2831 15.975 25.7006 15.976 20.85Z" fill="white" fill-opacity="0.1"/>
<path d="M28.3324 43.8765C29.7921 43.8752 31.2477 44.0687 32.6756 44.4542C29.4286 41.8958 25.6847 40.552 21.8697 40.5752C10.4828 40.6081 1.26685 52.2122 1.2926 68.0087L7.88455 67.9926C9.06096 53.9125 17.7594 43.9094 28.3324 43.8765Z" fill="black" fill-opacity="0.1"/>
<path d="M21.8829 34.9958C29.4281 34.9958 35.5449 27.1849 35.5449 17.5487C35.5449 7.91307 29.4281 0.101562 21.8829 0.101562C14.3377 0.101562 8.22081 7.91307 8.22081 17.5487C8.22788 27.181 14.3402 34.9867 21.8829 34.9958ZM21.8829 3.40284C28.0007 3.40284 32.9598 9.73651 32.9598 17.5487C32.9598 25.3615 28.0007 31.6945 21.8829 31.6945C15.765 31.6945 10.8059 25.3615 10.8059 17.5487C10.813 9.73974 15.768 3.41186 21.8829 3.40284Z" fill="#0061FF"/>
<path d="M2.62401 66.3419C2.89514 59.8548 4.87283 53.9292 8.23344 49.5215C11.8137 44.8172 16.6607 42.2258 21.8697 42.2258H21.9086C26.223 42.1942 30.4172 44.0396 33.8 47.4582C33.9939 47.6568 34.1877 47.8709 34.3816 48.0695L36.0619 45.5768C35.8423 45.3292 35.6227 45.0983 35.4025 44.8669C31.5512 40.955 26.8718 38.9084 21.8697 38.9084C15.9498 38.9246 10.4565 41.8628 6.385 47.2106C2.24887 52.6249 -0.0130705 60.0031 5.68185e-05 68.0087C0.00207654 68.9197 0.57968 69.6567 1.2926 69.6593L37.613 69.5768V66.2755L2.62401 66.3419Z" fill="black"/>
<path d="M50.0729 52.1294L44.2307 58.2039L42.1237 55.0509C41.6597 54.3584 40.8438 54.2772 40.3016 54.8697C39.7588 55.4623 39.6952 56.5043 40.1592 57.1967L43.0931 61.5709C43.34 61.9365 43.698 62.1474 44.0757 62.1487C44.3721 62.1519 44.6598 62.0236 44.8901 61.7856L51.7148 54.7047C52.2692 54.125 52.3515 53.0818 51.8991 52.3719C51.4467 51.6626 50.6303 51.5536 50.0729 52.1294V52.1294Z" fill="#FB724C"/>
<path d="M57.3888 44.7515L46.2472 37.1753C45.8635 36.9078 45.3985 36.9142 45.0193 37.1915L34.1877 44.7683C33.7732 45.0597 33.5157 45.6162 33.5157 46.2203V56.1241C33.5233 64.6391 37.4746 72.3417 43.5844 75.7506L45.0839 76.592C45.2465 76.6849 45.4232 76.73 45.601 76.7242C45.7782 76.7204 45.9534 76.6759 46.118 76.592L47.8109 75.6513C54.0322 72.3184 58.0785 64.5417 58.074 55.9262V46.2203C58.0745 45.6071 57.8114 45.043 57.3888 44.7515V44.7515ZM55.4889 55.9262C55.4914 63.2206 52.0606 69.8025 46.79 72.6144H46.7769L45.601 73.2579L44.6184 72.713C39.4493 69.8289 36.1063 63.3122 36.1008 56.108V47.1778L45.6524 40.4927L55.4889 47.1946V55.9262Z" fill="black"/>
</svg>
