<svg width="61" height="60" viewBox="0 0 61 60" fill="none" xmlns="http://www.w3.org/2000/svg">
<path d="M54.9412 0H5.29412C2.37494 0 0 2.37494 0 5.29412V54.7059C0 57.6251 2.37494 60 5.29412 60H54.9412C57.8604 60 60.2353 57.6251 60.2353 54.7059V5.29412C60.2353 2.37494 57.8604 0 54.9412 0ZM5.29412 3.52941H54.9412C55.9142 3.52941 56.7059 4.32106 56.7059 5.29412V14.1176H3.52941V5.29412C3.52941 4.32106 4.32106 3.52941 5.29412 3.52941ZM54.9412 56.4706H5.29412C4.32106 56.4706 3.52941 55.6789 3.52941 54.7059V17.6471H56.7059V54.7059C56.7059 55.6789 55.9142 56.4706 54.9412 56.4706Z" fill="black"/>
<path d="M36.1069 23.0839C35.2112 22.7 34.1736 23.115 33.7898 24.0107L23.2015 48.7166C22.8175 49.6124 23.2326 50.6499 24.1283 51.0338C25.0245 51.4178 26.0618 51.0025 26.4455 50.107L37.0338 25.4011C37.4178 24.5052 37.0027 23.4678 36.1069 23.0839Z" fill="black"/>
<path d="M20.9074 28.8975C20.2985 28.1365 19.1878 28.0132 18.4271 28.622L9.60355 35.6808C8.72131 36.3864 8.72072 37.7307 9.60355 38.4368L18.4271 45.4957C19.1881 46.1046 20.2988 45.9811 20.9074 45.2201C21.5163 44.4591 21.393 43.3485 20.6318 42.7398L13.5308 37.0588L20.6318 31.378C21.393 30.7692 21.5163 29.6587 20.9074 28.8975Z" fill="#FB724C"/>
<path d="M50.6318 35.6808L41.8082 28.6219C41.0472 28.013 39.9366 28.1364 39.3279 28.8975C38.7191 29.6585 38.8424 30.7691 39.6035 31.3778L46.7045 37.0588L39.6035 42.7396C38.8424 43.3484 38.7191 44.4589 39.3279 45.2199C39.9375 45.9818 41.0482 46.1037 41.8082 45.4955L50.6318 38.4367C51.514 37.7311 51.5146 36.3869 50.6318 35.6808Z" fill="#FB724C"/>
<path d="M8.94119 10.5882C9.91581 10.5882 10.7059 9.79816 10.7059 8.82354C10.7059 7.84892 9.91581 7.05884 8.94119 7.05884C7.96657 7.05884 7.17648 7.84892 7.17648 8.82354C7.17648 9.79816 7.96657 10.5882 8.94119 10.5882Z" fill="#FB724C"/>
<path d="M16 10.5882C16.9746 10.5882 17.7647 9.79816 17.7647 8.82354C17.7647 7.84892 16.9746 7.05884 16 7.05884C15.0254 7.05884 14.2353 7.84892 14.2353 8.82354C14.2353 9.79816 15.0254 10.5882 16 10.5882Z" fill="#FB724C"/>
<path d="M23.0588 10.5882C24.0335 10.5882 24.8235 9.79816 24.8235 8.82354C24.8235 7.84892 24.0335 7.05884 23.0588 7.05884C22.0842 7.05884 21.2941 7.84892 21.2941 8.82354C21.2941 9.79816 22.0842 10.5882 23.0588 10.5882Z" fill="#FB724C"/>
<path d="M40.7059 10.5882H51.2941C52.2687 10.5882 53.0588 9.79813 53.0588 8.82354C53.0588 7.84896 52.2687 7.05884 51.2941 7.05884H40.7059C39.7313 7.05884 38.9412 7.84896 38.9412 8.82354C38.9412 9.79813 39.7313 10.5882 40.7059 10.5882Z" fill="black"/>
</svg>
